<?xml version="1.0" standalone="no"?><!DOCTYPE svg PUBLIC "-//W3C//DTD SVG 1.1//EN" "http://www.w3.org/Graphics/SVG/1.1/DTD/svg11.dtd"><svg t="1592913766189" class="icon" viewBox="0 0 1024 1024" version="1.1" xmlns="http://www.w3.org/2000/svg" p-id="8219" xmlns:xlink="http://www.w3.org/1999/xlink" width="200" height="200"><defs><style type="text/css">@font-face { font-family: element-icons; src: url("chrome-extension://moombeodfomdpjnpocobemoiaemednkg/fonts/element-icons.woff") format("woff"), url("chrome-extension://moombeodfomdpjnpocobemoiaemednkg/fonts/element-icons.ttf ") format("truetype"); }
</style></defs><path d="M445.146218 674.901554C344.252711 679.625579 262.697586 629.026793 262.697586 561.708712 262.697586 494.315996 344.252711 440.256423 445.146218 435.597355 546.093627 430.949343 627.820134 472.547873 627.820134 539.816204 627.820134 607.139814 546.093627 670.328175 445.146218 674.901554M659.97061 456.178249C635.993891 451.530237 647.650545 438.626925 647.650545 438.626925 647.650545 438.626925 671.092392 399.976418 643.002533 371.886559 608.190127 337.085209 523.612345 376.318963 523.612345 376.318963 491.30569 386.339209 499.856761 371.734528 504.42461 346.895377 504.42461 317.627966 494.404364 268.065758 408.331145 297.338696 322.369877 326.756755 248.551764 429.864392 248.551764 429.864392 197.209407 498.353116 204.017646 551.294566 204.017646 551.294566 216.822829 668.190059 341.018591 700.27005 437.61376 707.866086 539.252221 715.835293 676.399669 672.833926 718.002344 584.498206 759.589819 495.993866 684.00676 460.978292 659.97061 456.178249M459.247814 562.443991C452.816889 567.24265 444.908498 566.584769 441.53893 560.818635 437.992455 555.219737 439.320655 546.225013 445.809628 541.500984 453.324123 535.89794 461.153736 537.512237 464.538505 543.12634 467.923274 548.870359 465.499067 557.497443 459.247814 562.443991M399.417965 613.392447C380.467953 615.621777 365.199862 604.700401 365.199862 588.838007 365.199862 573.068215 378.77764 556.536882 397.733181 554.560476 419.484715 552.487322 433.64574 565.035434 433.64574 580.879859 433.64574 596.65518 418.286433 611.254335 399.417965 613.392447M425.013126 480.002937C323.552957 491.875199 335.273189 586.922413 335.273189 586.922413 335.273189 586.922413 334.232466 617.025995 362.478503 632.347988 421.849494 664.513668 482.970228 645.045367 513.878194 605.148203 544.770956 565.256569 526.635001 468.195632 425.013126 480.002937M709.36973 415.033047C717.549016 415.033047 724.492701 408.976671 725.674397 401.098686 725.815372 400.500234 725.880333 399.976418 725.880333 399.322683 738.275031 287.901698 634.591057 307.078375 634.591057 307.078375 625.375196 307.078375 618.005821 314.523763 618.005821 323.814258 618.005821 332.961016 625.375196 340.41055 634.591057 340.41055 709.072579 323.96629 692.622792 398.438139 692.622792 398.438139 692.622792 407.652616 700.138668 415.033047 709.36973 415.033047M697.287389 220.540769C661.434259 212.144495 624.570811 219.39086 614.221626 221.365885 613.432446 221.447429 612.676433 222.192382 611.953595 222.34856 611.591482 222.413519 611.370347 222.781158 611.370347 222.781158 601.177339 225.658696 593.743007 235.095694 593.743007 246.234061 593.743007 259.503631 604.502677 270.420861 617.924278 270.420861 617.924278 270.420861 630.983769 268.671119 639.822316 265.204805 648.595905 261.679061 722.856289 262.576045 759.730794 324.516367 779.862505 369.715276 768.584545 399.976418 767.185857 404.840038 767.185857 404.840038 762.392725 416.578236 762.392725 428.147821 762.392725 441.498935 773.152395 449.888299 786.497982 449.888299 797.636347 449.888299 807.008388 448.355546 809.735277 429.507809L809.874868 429.507809C849.47488 297.533573 761.430782 235.522764 697.287389 220.540769M511.996538 1.348548C238.349895 1.348548 16.493931 223.19896 16.493931 496.808131 16.493931 770.508899 238.345732 992.31629 511.996538 992.31629 785.654285 992.31629 1007.506085 770.508899 1007.506085 496.808131 1007.506085 223.19896 785.654285 1.348548 511.996538 1.348548M511.240469 27.88708C769.41386 27.88708 979.454028 237.884289 979.454028 496.052135 979.454028 754.268484 769.41386 964.292023 511.240469 964.292023 253.029665 964.292023 42.989498 754.268484 42.989498 496.052135 42.989498 237.884289 253.029665 27.88708 511.240469 27.88708" p-id="8220"></path></svg>